<?xml version="1.0" encoding="UTF-8" standalone="no" ?>
<!DOCTYPE svg PUBLIC "-//W3C//DTD SVG 1.1//EN" "http://www.w3.org/Graphics/SVG/1.1/DTD/svg11.dtd">
<svg xmlns="http://www.w3.org/2000/svg" xmlns:xlink="http://www.w3.org/1999/xlink" version="1.1" width="800" height="600" viewBox="0 0 800 600" xml:space="preserve">
<desc>Created with Fabric.js 5.3.0</desc>
<defs>
</defs>
<g transform="matrix(1 0 0 1 401 301)"  >
<polygon style="stroke: rgb(0,0,0); stroke-width: 2; stroke-dasharray: none; stroke-linecap: butt; stroke-dashoffset: 0; stroke-linejoin: miter; stroke-miterlimit: 4; fill: rgb(0,0,255); fill-opacity: 0.3; fill-rule: nonzero; opacity: 1;"  points="-229.14,184 -236.6,157.56 -245.06,159.93 -253.22,130.96 -263.3,133.78 -266.23,123.43 -272.06,102.75 -287.11,106.95 -295.29,77.98 -298.63,78.89 -302.25,79.92 -310.97,48.96 -321.45,51.89 -328.43,27.21 -332.66,28.37 -334.33,28.87 -337.35,29.72 -344.22,5.27 -353.36,7.85 -360,-15.72 -289.47,-35.51 -280.88,-37.95 -272.18,-40.39 -217.57,-55.72 -153.35,-73.74 -94.7,-90.21 -75.12,-95.69 9.33,-119.4 15.9,-121.27 22.27,-123.04 28.32,-124.73 94.48,-143.32 131.43,-153.67 155.78,-160.53 239.4,-184 260.44,-109.34 247.5,-105.7 194.04,-90.72 171.37,-84.32 126.46,-71.74 77.7,-58.03 36.26,-46.41 -24.1,-29.44 -40.18,-24.96 -54.21,-21 -187.95,16.53 -184.69,28.12 -180.87,41.73 -173.95,66.26 -171.88,73.56 -44.21,37.73 -30.72,33.95 -18.3,30.45 34.41,15.68 93.65,-0.96 159.24,-19.38 263.47,-48.64 325.85,-66.17 335.37,-68.85 341.87,-45.79 348.37,-22.74 360,18.58 359.13,18.83 357.71,19.21 349.24,21.62 340.77,23.99 332.31,26.35 323.82,28.76 315.36,31.13 306.89,33.49 298.41,35.86 289.96,38.27 285.81,39.43 281.48,40.63 273.01,43 264.55,45.4 256.06,47.77 247.6,50.14 239.13,52.5 230.65,54.91 222.2,57.28 213.71,59.64 205.23,62.05 199.41,63.67 188,66.89 112.48,88.09 101.71,91.09 72.85,99.19 67.27,100.78 58.65,103.18 50,105.62 41.36,108.06 32.72,110.46 24.09,112.9 15.45,115.34 6.82,117.74 -1.84,120.18 -10.46,122.58 -19.09,125.02 -27.77,127.46 -36.39,129.86 -45.04,132.3 -53.66,134.74 -62.32,137.14 -70.95,139.58 -75.26,140.78 -79.59,141.98 -88.22,144.42 -96.84,146.86 -105.48,149.26 -114.13,151.7 -122.77,154.14 -131.39,156.54 -140.04,158.98 -148.7,161.42 -157.34,163.82 -165.97,166.26 -174.59,168.66 -183.24,171.1 -190.38,173.11 -209.17,178.38 -213.73,179.65 -226.39,183.22 -229.14,184 " />
</g>
<g transform="matrix(1 0 0 1 238.61 393.02)"  >
<line style="stroke: rgb(0,0,0); stroke-width: 2; stroke-dasharray: none; stroke-linecap: butt; stroke-dashoffset: 0; stroke-linejoin: miter; stroke-miterlimit: 4; fill: rgb(0,0,0); fill-rule: nonzero; opacity: 1;"  x1="-5.390295999872066" y1="-19.609080777830485" x2="5.390295999872066" y2="19.609080777830485" />
</g>
<g transform="matrix(1 0 0 1 256.25 448.51)"  >
<line style="stroke: rgb(0,0,0); stroke-width: 2; stroke-dasharray: none; stroke-linecap: butt; stroke-dashoffset: 0; stroke-linejoin: miter; stroke-miterlimit: 4; fill: rgb(0,0,0); fill-rule: nonzero; opacity: 1;"  x1="3.2485686015819795" y1="11.882998322653634" x2="-3.2485686015819795" y2="-11.882998322653634" />
</g>
<g transform="matrix(1 0 0 1 193.41 384.58)"  >
<line style="stroke: rgb(0,0,0); stroke-width: 2; stroke-dasharray: none; stroke-linecap: butt; stroke-dashoffset: 0; stroke-linejoin: miter; stroke-miterlimit: 4; fill: rgb(0,0,0); fill-rule: nonzero; opacity: 1;"  x1="35.41447659201741" y1="-11.040469949688912" x2="-35.41447659201741" y2="11.040469949688912" />
</g>
<g transform="matrix(1 0 0 1 140.86 345.09)"  >
<line style="stroke: rgb(0,0,0); stroke-width: 2; stroke-dasharray: none; stroke-linecap: butt; stroke-dashoffset: 0; stroke-linejoin: miter; stroke-miterlimit: 4; fill: rgb(0,0,0); fill-rule: nonzero; opacity: 1;"  x1="-48.13533809781827" y1="14.46064597049471" x2="48.13533809781827" y2="-14.46064597049471" />
</g>
<g transform="matrix(1 0 0 1 205.84 290.85)"  >
<line style="stroke: rgb(0,0,0); stroke-width: 2; stroke-dasharray: none; stroke-linecap: butt; stroke-dashoffset: 0; stroke-linejoin: miter; stroke-miterlimit: 4; fill: rgb(0,0,0); fill-rule: nonzero; opacity: 1;"  x1="8.842670495738773" y1="26.221357847160306" x2="-8.842670495738773" y2="-26.221357847160306" />
</g>
<g transform="matrix(1 0 0 1 153.18 294.57)"  >
<line style="stroke: rgb(0,0,0); stroke-width: 2; stroke-dasharray: none; stroke-linecap: butt; stroke-dashoffset: 0; stroke-linejoin: miter; stroke-miterlimit: 4; fill: rgb(0,0,0); fill-rule: nonzero; opacity: 1;"  x1="49.17764958444785" y1="-14.059909053838226" x2="-49.17764958444785" y2="14.059909053838226" />
</g>
</svg>