<?xml version="1.0" encoding="utf-8" ?>
<svg baseProfile="tiny" height="100%" version="1.2" width="100%" xmlns="http://www.w3.org/2000/svg" xmlns:ev="http://www.w3.org/2001/xml-events" xmlns:xlink="http://www.w3.org/1999/xlink"><defs /><polygon fill="none" points="319.2089,2172.5457 428.4585,2004.4328 300.0,1920.7314 373.8989,1807.2294 610.2822,1443.6918 738.2982,1526.5715 965.5587,1177.5318 1218.6774,1343.3838 1437.346,1486.9216 1549.2301,1560.2817 1513.5157,1616.5755 1660.3184,1713.9069 1696.0856,1659.283 1723.1191,1618.3085 1956.2073,1269.0855 1834.9296,1188.4997 1870.7233,1134.7109 1975.3232,977.6115 2108.179,778.6633 2129.2602,747.0711 2250.1218,827.6702 2376.193,638.1307 2602.1347,300.0 3504.1824,896.6949 2842.7674,1903.0444 2547.0362,2352.8748 1893.6089,3348.1085 1413.5482,3027.278 1489.1059,2900.3505 1307.649,2787.3981 319.2089,2172.5457" stroke="black" stroke-width="2" /></svg>